# Geometry copied from the Ur5eRobotiq training bucket (Blender 2.93.1 export).
o Cylinder
v -0.000000 0.079763 0.000047
v -0.000000 0.101419 0.197743
v 0.040890 0.068807 0.000047
v 0.051718 0.087562 0.197743
v 0.070823 0.038873 0.000047
v 0.089578 0.049702 0.197743
v 0.081779 -0.002016 0.000047
v 0.103436 -0.002016 0.197743
v 0.070823 -0.042906 0.000047
v 0.089578 -0.053734 0.197743
v 0.040890 -0.072839 0.000047
v 0.051718 -0.091594 0.197743
v -0.000000 -0.083795 0.000047
v -0.000000 -0.105452 0.197743
v -0.040890 -0.072839 0.000047
v -0.051718 -0.091594 0.197743
v -0.070823 -0.042906 0.000047
v -0.089578 -0.053734 0.197743
v -0.081779 -0.002016 0.000047
v -0.103436 -0.002016 0.197743
v -0.070823 0.038873 0.000047
v -0.089578 0.049702 0.197743
v -0.040890 0.068807 0.000047
v -0.051718 0.087562 0.197743
v 0.060000 0.101907 0.197743
v 0.000000 0.117984 0.197743
v 0.103923 0.057984 0.197743
v 0.120000 -0.002016 0.197743
v 0.103923 -0.062016 0.197743
v 0.060000 -0.105939 0.197743
v -0.000000 -0.122016 0.197743
v -0.060000 -0.105939 0.197743
v -0.103923 -0.062016 0.197743
v -0.120000 -0.002016 0.197743
v -0.103923 0.057984 0.197743
v -0.060000 0.101907 0.197743
v 0.035245 0.059030 0.009911
v -0.000000 0.068474 0.009911
v 0.061047 0.033229 0.009911
v 0.070491 -0.002016 0.009911
v 0.061047 -0.037262 0.009911
v 0.035245 -0.063063 0.009911
v -0.000000 -0.072507 0.009911
v -0.035245 -0.063063 0.009911
v -0.061047 -0.037261 0.009911
v -0.070491 -0.002016 0.009911
v -0.061047 0.033229 0.009911
v -0.035245 0.059030 0.009911
f 1 26 25 3
f 3 25 27 5
f 5 27 28 7
f 7 28 29 9
f 9 29 30 11
f 11 30 31 13
f 13 31 32 15
f 15 32 33 17
f 17 33 34 19
f 19 34 35 21
f 10 8 40 41
f 21 35 36 23
f 23 36 26 1
f 1 3 5 7 9 11 13 15 17 19 21 23
f 2 4 25 26
f 4 6 27 25
f 6 8 28 27
f 8 10 29 28
f 10 12 30 29
f 12 14 31 30
f 14 16 32 31
f 16 18 33 32
f 18 20 34 33
f 20 22 35 34
f 22 24 36 35
f 24 2 26 36
f 37 38 48 47 46 45 44 43 42 41 40 39
f 24 22 47 48
f 4 2 38 37
f 18 16 44 45
f 12 10 41 42
f 2 24 48 38
f 6 4 37 39
f 20 18 45 46
f 14 12 42 43
f 8 6 39 40
f 22 20 46 47
f 16 14 43 44
